# xmcd CD database file
#
# Track frame offsets:
#	150
#	18081
#	29600
#	48803
#	70361
#	87418
#	102163
#	119385
#	135929
#	154505
#	168059
#	189413
#	206075
#
# Disc length: 2982 seconds
#
# Revision: 0
# Processed by: cddbd v1.5.2PL0 Copyright (c) Steve Scherf et al.
# Submitted via: CDex 1.51
#
DISCID=9f0ba40d
DTITLE=Michael Bublé - It's Time
DYEAR=1900
DGENRE=Jazz
TTITLE0=01 - Feeling Good
TTITLE1=02 - A Foggy Day (In London Town)
TTITLE2=03 - You Don't Know Me
TTITLE3=04 - Quando, Quando, Quando (Duet With Nelly Furtado)
TTITLE4=05 - Home
TTITLE5=06 - Can't Buy Me Love
TTITLE6=07 - The More I See You
TTITLE7=08 - Save The Last Dance For Me
TTITLE8=09 - Try A Little Tenderness
TTITLE9=10 - How Sweet It Is
TTITLE10=11 - Song For You (Feat. Chris Botti)
TTITLE11=12 - I've Got You Under My Skin
TTITLE12=13 - You And I
EXTD=
EXTT0=
EXTT1=
EXTT2=
EXTT3=
EXTT4=
EXTT5=
EXTT6=
EXTT7=
EXTT8=
EXTT9=
EXTT10=
EXTT11=
EXTT12=
PLAYORDER=
